<svg xmlns="http://www.w3.org/2000/svg" xmlns:xlink="http://www.w3.org/1999/xlink"  viewBox="0 0 614.99 634.88">
  <defs>
    <path id="a" d="M0 0h614.99v634.88H0z"/>
  </defs>
  <clipPath id="b">
    <use xlink:href="#a" overflow="visible"/>
  </clipPath>
  <path clip-path="url(#b)" fill="#BDD231" d="M525.19 0c-27.11 2.16-59.34 36.5-59.34 36.5l12.38 51.85-23.27-42.21-47.06 45.44 18.24 61.8-29.96-51.04-35.58 41.76 30.96 68.27-38.78-60.13-26.46 37.02 29.65 49.97-35.82-43.18-19.85 32.75 19.85 43.51-25.55-35.11-12.95 20.47 32.05 52.18-35.11-45.72-26.12 52.55 16.28 39.56-25.02-29.09-16.68 29.61c-11.59 21.09 5.79 39.92 5.79 39.92s22.02 18.18 2.16 42.45c-34.32 41.93-85.22 84.01-131.73 125.45-8.99 8.01-26.59 22.58-26.34 23.96.25 1.38 27.6-14.3 39.91-23.6C432.78 326.19 525.19 0 525.19 0"/>
  <path clip-path="url(#b)" fill="#BDD231" d="M533.02 118.4c-1.09 3.81-2.39 7.25-3.92 10.15l-33.55 12.53 36.59-8.17-13.68 33.83-52 15.35 49.61-4.13-22.2 49.49-58.85 17.37 51.01-2.35-35.43 55.15-57.24 16.89 48.45-5.1-17.86 24.11-54.84 13.12 45.3-2.42s-35.72 48.23-60.32 67.32c0 0-43.85 2.86-60.5-.11l49.84 8.51s-16.27 25.29-55.03 18.43c-14.98-2.65-22.22 7.87-22.22 7.87s-46.32 53.4-143.83 126.63c51.5 38.9 115.62 61.97 185.14 61.97 169.82 0 307.49-137.67 307.49-307.49.01-80.67-31.1-154.1-81.96-208.95M107.59 538.21C51.72 485.2 16.81 410.3 16.81 327.39 16.81 167.1 147.21 36.7 307.5 36.7c39.08 0 76.36 7.79 110.43 21.84l13.15-12.7c-37.84-16.68-79.64-25.95-123.58-25.95C137.95 19.89 0 157.83 0 327.39c0 87.09 36.4 165.82 94.78 221.82l12.81-11z"/>
</svg>
